<svg width="48" height="49" viewBox="0 0 48 49" fill="none" xmlns="http://www.w3.org/2000/svg">
<path d="M44 24.3872H4" stroke="#141416" stroke-width="3" stroke-linecap="round" stroke-linejoin="round"/>
<path d="M10.9 10.6072L4 24.3872V36.3872C4 37.4481 4.42143 38.4655 5.17157 39.2156C5.92172 39.9658 6.93913 40.3872 8 40.3872H40C41.0609 40.3872 42.0783 39.9658 42.8284 39.2156C43.5786 38.4655 44 37.4481 44 36.3872V24.3872L37.1 10.6072C36.7688 9.94078 36.2584 9.37995 35.6259 8.98777C34.9935 8.59558 34.2642 8.3876 33.52 8.38721H14.48C13.7358 8.3876 13.0065 8.59558 12.3741 8.98777C11.7417 9.37995 11.2312 9.94078 10.9 10.6072Z" stroke="#141416" stroke-width="3" stroke-linecap="round" stroke-linejoin="round"/>
<path d="M12 32.3872H12.02" stroke="#141416" stroke-width="3" stroke-linecap="round" stroke-linejoin="round"/>
<path d="M20 32.3872H20.02" stroke="#141416" stroke-width="3" stroke-linecap="round" stroke-linejoin="round"/>
</svg>
