<svg width="48" height="48" viewBox="0 0 48 48" fill="none" xmlns="http://www.w3.org/2000/svg">
<path d="M41.5469 7.5V15C41.5469 15.3978 41.3888 15.7794 41.1075 16.0607C40.8262 16.342 40.4447 16.5 40.0469 16.5C39.6491 16.5 39.2675 16.342 38.9862 16.0607C38.7049 15.7794 38.5469 15.3978 38.5469 15V9H32.5469C32.149 9 31.7675 8.84196 31.4862 8.56066C31.2049 8.27936 31.0469 7.89782 31.0469 7.5C31.0469 7.10218 31.2049 6.72064 31.4862 6.43934C31.7675 6.15804 32.149 6 32.5469 6H40.0469C40.4447 6 40.8262 6.15804 41.1075 6.43934C41.3888 6.72064 41.5469 7.10218 41.5469 7.5ZM14.5469 39H8.54688V33C8.54688 32.6022 8.38884 32.2206 8.10753 31.9393C7.82623 31.658 7.4447 31.5 7.04688 31.5C6.64905 31.5 6.26752 31.658 5.98622 31.9393C5.70491 32.2206 5.54688 32.6022 5.54688 33V40.5C5.54688 40.8978 5.70491 41.2794 5.98622 41.5607C6.26752 41.842 6.64905 42 7.04688 42H14.5469C14.9447 42 15.3262 41.842 15.6075 41.5607C15.8888 41.2794 16.0469 40.8978 16.0469 40.5C16.0469 40.1022 15.8888 39.7206 15.6075 39.4393C15.3262 39.158 14.9447 39 14.5469 39ZM40.0469 31.5C39.6491 31.5 39.2675 31.658 38.9862 31.9393C38.7049 32.2206 38.5469 32.6022 38.5469 33V39H32.5469C32.149 39 31.7675 39.158 31.4862 39.4393C31.2049 39.7206 31.0469 40.1022 31.0469 40.5C31.0469 40.8978 31.2049 41.2794 31.4862 41.5607C31.7675 41.842 32.149 42 32.5469 42H40.0469C40.4447 42 40.8262 41.842 41.1075 41.5607C41.3888 41.2794 41.5469 40.8978 41.5469 40.5V33C41.5469 32.6022 41.3888 32.2206 41.1075 31.9393C40.8262 31.658 40.4447 31.5 40.0469 31.5ZM7.04688 16.5C7.4447 16.5 7.82623 16.342 8.10753 16.0607C8.38884 15.7794 8.54688 15.3978 8.54688 15V9H14.5469C14.9447 9 15.3262 8.84196 15.6075 8.56066C15.8888 8.27936 16.0469 7.89782 16.0469 7.5C16.0469 7.10218 15.8888 6.72064 15.6075 6.43934C15.3262 6.15804 14.9447 6 14.5469 6H7.04688C6.64905 6 6.26752 6.15804 5.98622 6.43934C5.70491 6.72064 5.54688 7.10218 5.54688 7.5V15C5.54688 15.3978 5.70491 15.7794 5.98622 16.0607C6.26752 16.342 6.64905 16.5 7.04688 16.5ZM31.0469 34.5H16.0469C15.2512 34.5 14.4882 34.1839 13.9256 33.6213C13.3629 33.0587 13.0469 32.2956 13.0469 31.5V16.5C13.0469 15.7044 13.3629 14.9413 13.9256 14.3787C14.4882 13.8161 15.2512 13.5 16.0469 13.5H31.0469C31.8425 13.5 32.6056 13.8161 33.1682 14.3787C33.7308 14.9413 34.0469 15.7044 34.0469 16.5V31.5C34.0469 32.2956 33.7308 33.0587 33.1682 33.6213C32.6056 34.1839 31.8425 34.5 31.0469 34.5ZM16.0469 31.5H31.0469V16.5H16.0469V31.5Z" fill="#141416"/>
</svg>
